HIERARCHY
ROOT Hips
{
  OFFSET -32.5998 29.0326 120.673
  CHANNELS 6 Xposition Yposition Zposition Zrotation Xrotation Yrotation
  JOINT LeftUpLeg
  {
    OFFSET 8.64259 1.95398 -2.38835
    CHANNELS 3 Zrotation Xrotation Yrotation
    JOINT LeftLeg
    {
      OFFSET 43.7702 0 0
      CHANNELS 3 Zrotation Xrotation Yrotation
      JOINT LeftFoot
      {
        OFFSET 40.6238 0 0
        CHANNELS 3 Zrotation Xrotation Yrotation
        JOINT LeftToeBase
        {
          OFFSET 12.7242 0 0
          CHANNELS 3 Zrotation Xrotation Yrotation
          End Site
          {
            OFFSET 0 0 0
          }
        }
      }
    }
  }
  JOINT RightUpLeg
  {
    OFFSET -8.2249 1.95398 -2.59336
    CHANNELS 3 Zrotation Xrotation Yrotation
    JOINT RightLeg
    {
      OFFSET 43.5653 0 0
      CHANNELS 3 Zrotation Xrotation Yrotation
      JOINT RightFoot
      {
        OFFSET 40.6238 0 0
        CHANNELS 3 Zrotation Xrotation Yrotation
        JOINT RightToeBase
        {
          OFFSET 12.7242 0 0
          CHANNELS 3 Zrotation Xrotation Yrotation
          End Site
          {
            OFFSET 0 0 0
          }
        }
      }
    }
  }
  JOINT Spine
  {
    OFFSET 0.165834 0.87714 6.61349
    CHANNELS 3 Zrotation Xrotation Yrotation
    JOINT Spine1
    {
      OFFSET 7.38963 1.71661e-005 0
      CHANNELS 3 Zrotation Xrotation Yrotation
      JOINT Spine2
      {
        OFFSET 11.9445 1.14441e-005 0
        CHANNELS 3 Zrotation Xrotation Yrotation
        JOINT Spine3
        {
          OFFSET 14.7254 4.19617e-005 0
          CHANNELS 3 Zrotation Xrotation Yrotation
          JOINT Spine4
          {
            OFFSET 10.9679 0 0
            CHANNELS 3 Zrotation Xrotation Yrotation
            JOINT RightShoulder
            {
              OFFSET 2.46616 -1.6653 3.69651
              CHANNELS 3 Zrotation Xrotation Yrotation
              JOINT RightArm
              {
                OFFSET 13.0012 0 0
                CHANNELS 3 Zrotation Xrotation Yrotation
                JOINT RightForeArm
                {
                  OFFSET 28.7848 1.62311e-005 0
                  CHANNELS 3 Zrotation Xrotation Yrotation
                  JOINT RightHand
                  {
                    OFFSET 26.5688 1.62095e-005 0
                    CHANNELS 3 Zrotation Xrotation Yrotation
                    End Site
                    {
                      OFFSET 0 0 0
                    }
                  }
                }
              }
            }
            JOINT LeftShoulder
            {
              OFFSET 2.38034 -1.29275 -3.7523
              CHANNELS 3 Zrotation Xrotation Yrotation
              JOINT LeftArm
              {
                OFFSET 16.3182 6.07031e-005 0
                CHANNELS 3 Zrotation Xrotation Yrotation
                JOINT LeftForeArm
                {
                  OFFSET 27.0901 0 0
                  CHANNELS 3 Zrotation Xrotation Yrotation
                  JOINT LeftHand
                  {
                    OFFSET 24.5451 1.51738e-005 0
                    CHANNELS 3 Zrotation Xrotation Yrotation
                    End Site
                    {
                      OFFSET 0 0 0
                    }
                  }
                }
              }
            }
            JOINT Neck
            {
              OFFSET 5.0226 -0.0266342 0
              CHANNELS 3 Zrotation Xrotation Yrotation
              JOINT Head
              {
                OFFSET 6.69364 2.86102e-005 0
                CHANNELS 3 Zrotation Xrotation Yrotation
                End Site
                {
                  OFFSET 0 0 0
                }
              }
            }
          }
        }
      }
    }
  }
}
MOTION
Frames:	18
Frame Time:	0.0416667
35.2224 101.129 20.6471 -150.413 -82.9637 -151.582 -172.946 -4.91313 89.9568 -11.5698 0.798352 -0.324608 70.9349 6.19662 -2.22966 19.0197 -8.24328 7.67349 171.087 -3.90182 86.4653 -12.1963 -9.11203 -0.402887 67.2645 -4.10963 1.24764 27.1086 -0.041124 3.04909 0.301991 7.43404 -89.9772 12.006 0.611211 -0.0209756 0.335221 0.609695 -0.0478507 -22.201 0.589264 0.163704 -2.18837 0.58925 0.16369 93.4936 -25.3102 -101.187 47.1147 -22.8345 -6.13772 -10.7456 -10.5577 -23.1682 -10.3498 -0.0366819 -4.98233 -86.3485 -47.5169 83.8165 -26.808 28.9771 -14.2602 5.05788 -10.0174 -7.73703 -2.95608 -0.0886913 -4.73059 5.89016 -1.911 -2.21988 -9.4426 -1.60964 2.85973 
35.2399 101.151 20.5688 -150.917 -83.1854 -152.105 -173.118 -4.80115 89.8455 -11.39 0.648448 -0.186112 70.8593 5.9958 -2.69267 18.5591 -8.52021 7.72524 171.212 -3.80774 86.5529 -12.0254 -9.07238 -0.479483 66.9622 -3.9452 1.02132 26.6317 0.185953 2.95118 0.295273 7.40063 -90.0153 12.073 0.579759 -0.0942648 0.402144 0.575056 -0.119695 -22.134 0.58129 0.0843471 -2.12139 0.581286 0.0843439 93.6872 -24.959 -100.88 47.2057 -23.1613 -6.08762 -11.3966 -12.5737 -23.4407 -11.1137 -0.0410704 -5.01681 -86.8166 -48.6089 83.2746 -25.4109 29.9243 -14.0414 4.34465 -12.1269 -7.89627 -1.08673 -0.108964 -6.21953 5.13278 -1.99806 -1.46336 -8.44735 -1.79301 2.12893 
35.276 101.14 20.5248 -150.5 -83.2831 -151.716 -173.242 -4.62896 89.7048 -11.4823 1.02258 -0.145597 70.7026 5.90725 -2.50068 17.7477 -8.73183 7.32585 171.199 -3.62986 86.5163 -12.0782 -8.72842 -0.448443 67.1206 -3.97557 1.30671 26.4945 0.221494 3.03648 0.310387 7.41139 -90.0346 12.0516 0.600752 -0.134912 0.380825 0.594239 -0.161221 -22.1554 0.613527 0.0518873 -2.1428 0.613524 0.0518849 93.8077 -24.8446 -100.654 46.8998 -23.8553 -6.78295 -11.5123 -14.2787 -22.4678 -9.53915 0.102892 -6.71964 -86.9587 -49.0256 83.127 -25.1254 29.7093 -14.4201 4.34694 -12.1366 -7.65323 -1.74782 -0.0982346 -6.50998 5.20456 -1.99862 -1.09297 -8.19766 -1.85275 2.0373 
35.3019 101.148 20.4851 -149.351 -83.2662 -150.636 -173.216 -4.63579 89.6452 -11.356 0.769955 -0.234236 70.7129 5.90831 -2.6868 17.1506 -9.07314 7.35756 171.168 -3.51678 86.4357 -12.1111 -8.98551 -0.463649 67.2094 -4.04765 1.12674 26.2256 0.325272 3.07352 0.318085 7.4124 -89.9944 12.0495 0.635115 -0.0582551 0.378709 0.631934 -0.0861658 -22.1577 0.623258 0.135318 -2.14502 0.623256 0.135314 93.676 -25.2009 -100.827 46.7675 -23.677 -6.9857 -11.1185 -13.8034 -21.9292 -10.4172 0.0978364 -6.55131 -86.6688 -48.2063 83.4347 -26.0785 28.9395 -14.452 4.7789 -11.1806 -7.12571 -1.57312 -0.103389 -6.39662 5.17214 -1.99518 -1.36564 -8.27533 -1.79903 1.9969 
35.3104 101.148 20.4867 -149.263 -83.2908 -150.464 -173.167 -4.49714 89.7683 -11.5241 0.692102 -0.229604 70.6948 5.81967 -2.93873 17.42 -8.66993 6.90785 171.216 -3.54542 86.5203 -12.0039 -8.92116 -0.451653 67.0594 -3.93937 1.2724 26.417 0.261469 3.00929 0.314624 7.41283 -90.0042 12.0486 0.623577 -0.0765554 0.377766 0.61961 -0.10394 -22.1586 0.617763 0.114409 -2.14592 0.617755 0.114404 93.6944 -25.1521 -100.801 46.7182 -23.3535 -7.06404 -11.5204 -14.6396 -22.0708 -10.822 0.0515228 -5.97532 -86.5355 -48.1605 83.6323 -26.1379 28.7604 -14.5358 4.94257 -10.5982 -7.02851 -1.70561 -0.104597 -6.78575 5.10347 -1.93222 -1.40417 -8.59961 -1.7473 2.23045 
35.3333 101.131 20.5174 -149.628 -83.2245 -150.747 -173.137 -4.60373 89.8079 -11.4981 1.1407 -0.243845 70.7538 5.99401 -2.29394 17.5554 -8.91939 7.47213 171.215 -3.6566 86.5617 -11.9879 -8.97896 -0.435855 66.9872 -3.92046 1.23207 26.6686 0.189111 2.8799 0.309211 7.43267 -90.0546 12.0091 0.589033 -0.173033 0.338287 0.580852 -0.198805 -22.1979 0.613802 0.0120036 -2.18529 0.613802 0.0119951 93.7019 -24.9933 -100.837 46.4932 -23.7117 -7.07189 -10.965 -13.263 -21.9289 -10.1577 0.0972556 -6.58208 -86.6879 -48.865 83.5132 -24.9043 30.0874 -14.4506 4.20713 -12.3809 -7.81422 -1.10588 -0.113164 -6.48625 5.07253 -1.89119 -0.834298 -8.66436 -1.79834 1.90766 
35.3802 101.141 20.5381 -150.149 -83.403 -151.307 -173.116 -4.45028 89.8051 -11.5654 0.962546 -0.293731 70.8187 5.96174 -2.7181 17.3109 -8.82246 7.07135 171.185 -3.55348 86.5246 -11.9909 -8.88182 -0.415423 67.0427 -3.95779 1.15722 26.4153 0.256584 3.03211 0.319336 7.41984 -90.012 12.0346 0.629263 -0.092676 0.363791 0.624571 -0.120289 -22.1726 0.628024 0.100732 -2.15992 0.628021 0.100735 93.8084 -25.3821 -100.481 46.3941 -23.7616 -7.16222 -10.3374 -11.9281 -21.6847 -11.419 0.0734062 -6.16851 -86.6069 -47.9853 83.4936 -26.2221 28.6278 -14.6455 5.02309 -10.4058 -7.0539 -1.99192 -0.0990778 -6.89893 5.09027 -2.03976 -1.3785 -8.89126 -1.85113 1.96275 
35.4222 101.126 20.5737 -150.559 -83.3247 -151.582 -173.02 -4.35401 89.9427 -11.9749 1.13124 -0.312111 70.9894 6.01396 -2.60825 17.6787 -8.70475 7.21204 171.143 -3.80806 86.5635 -11.6676 -9.09079 -0.339889 66.6569 -3.7492 1.54139 27.1326 0.23452 1.94614 0.296433 7.42477 -90.0483 12.0249 0.566584 -0.158266 0.354075 0.559062 -0.183058 -22.1821 0.587945 0.0193366 -2.16942 0.587954 0.0193393 93.6203 -25.081 -100.987 46.5895 -23.3885 -6.92035 -10.4721 -11.9377 -21.8636 -11.7225 0.0654655 -6.0468 -86.4844 -48.2383 83.723 -26.4991 28.0608 -14.3929 5.20794 -10.2038 -7.13591 -1.78585 -0.104656 -6.60486 5.07492 -1.84481 -0.826387 -8.91653 -1.73908 1.50814 
35.4795 101.112 20.5833 -150.516 -83.5442 -151.76 -173.191 -4.2661 89.6481 -11.7882 1.09943 -0.301322 70.8631 6.03021 -2.49861 17.36 -8.75305 6.99705 170.998 -3.42219 86.2674 -11.9054 -8.84567 -0.301321 66.7454 -3.69445 1.96112 27.4428 0.0508003 2.14147 0.271966 7.4049 -90.0164 12.0644 0.532988 -0.091131 0.393565 0.528461 -0.114503 -22.1425 0.535727 0.0732744 -2.12982 0.53573 0.0732685 93.4783 -25.2575 -101.237 46.4414 -23.1959 -6.83684 -11.0539 -12.8894 -22.3119 -11.3954 0.0402239 -5.80821 -86.3927 -48.2746 83.87 -25.4516 29.8936 -14.1986 4.34823 -12.2741 -8.0542 -1.3811 -0.106461 -6.02479 4.96315 -1.77309 -0.94877 -8.84654 -1.6476 1.53813 
35.489 101.111 20.6527 -149.54 -83.3719 -150.711 -173.085 -4.43864 89.7409 -11.7649 1.03895 -0.362041 70.9608 6.06903 -2.50946 17.4971 -8.77189 7.1589 171.052 -3.56682 86.3271 -11.9044 -9.02715 -0.361342 66.6466 -3.63006 2.10851 27.6474 0.0821728 1.67433 0.293747 7.41188 -90.0328 12.0506 0.568568 -0.127562 0.379732 0.562409 -0.15247 -22.1564 0.580622 0.0492217 -2.14378 0.58062 0.0492145 93.5055 -25.1191 -101.224 46.655 -23.1971 -6.84259 -11.4741 -13.8287 -22.4671 -10.32 0.0866508 -6.43068 -86.5281 -48.0636 83.6275 -26.7357 27.8066 -14.0948 5.27443 -10.261 -7.29972 -1.4877 -0.106944 -6.08342 4.63605 -1.9433 -0.934529 -8.82941 -1.81908 1.49658 
35.5126 101.126 20.6731 -149.867 -83.4344 -151.082 -173.049 -4.53939 89.7253 -11.4871 1.15381 -0.440968 70.858 6.12724 -2.32315 17.223 -8.78409 6.92228 170.957 -3.49297 86.2589 -12.0682 -9.58254 -0.310211 66.8992 -3.89215 1.1272 26.881 0.234448 2.36147 0.284744 7.4121 -90.057 12.0502 0.539213 -0.172754 0.379312 0.531092 -0.196321 -22.1567 0.566203 -0.00270104 -2.1441 0.566204 -0.00271316 93.4909 -24.8459 -101.345 46.7902 -23.0169 -6.86996 -11.5078 -14.1575 -22.2891 -10.4188 0.0815239 -6.3559 -86.5849 -48.779 83.6566 -25.5143 29.0745 -14.1468 4.63254 -11.6484 -7.84619 -1.28903 -0.106621 -5.99306 4.55481 -1.77546 -0.477119 -8.91708 -1.72537 1.2431 
35.4898 101.116 20.7065 -149.411 -83.4531 -150.601 -173.146 -4.51144 89.6853 -11.5249 0.9914 -0.323254 70.9456 6.06609 -2.5573 17.2955 -8.97657 7.32639 171.035 -3.54493 86.3262 -11.8875 -9.12227 -0.34393 66.7791 -3.75259 1.72497 27.252 0.16715 2.00612 0.281515 7.41238 -90.0413 12.0495 0.540209 -0.141517 0.378701 0.533463 -0.16517 -22.1574 0.557766 0.0273817 -2.14471 0.557771 0.0273863 93.3452 -25.1338 -101.567 46.6421 -22.7203 -6.86184 -10.9046 -12.9789 -21.9045 -11.9737 0.0446693 -5.82184 -86.5984 -48.3074 83.5594 -25.9482 28.802 -14.0441 4.67384 -11.7759 -7.70488 -1.26302 -0.105755 -6.22606 4.33388 -1.77596 -0.879168 -8.6104 -1.65838 1.37332 
35.4922 101.13 20.7364 -148.417 -83.3878 -149.634 -173.117 -4.67182 89.6809 -11.2638 0.933856 -0.363406 70.846 6.03394 -2.4858 17.2745 -8.88022 7.13876 170.99 -3.49654 86.2553 -11.9708 -9.80675 -0.342004 66.5959 -3.67872 1.39282 27.585 0.0698515 1.82768 0.298211 7.41477 -90.0097 12.0447 0.588373 -0.0836237 0.373841 0.584127 -0.109451 -22.1624 0.586299 0.0970862 -2.14973 0.586304 0.0970721 93.1807 -25.5317 -101.791 46.5091 -22.8849 -6.68129 -11.4963 -13.9003 -22.3657 -10.4064 0.0939401 -6.50868 -86.5968 -47.7446 83.4697 -26.8022 27.8937 -14.0216 5.16768 -10.7332 -7.1356 -1.63132 -0.104765 -6.45545 3.79103 -1.89537 -1.44053 -8.20079 -1.68923 1.60114 
35.4855 101.119 20.7581 -147.957 -83.4217 -149.077 -173.121 -4.55574 89.7501 -11.4238 0.868027 -0.31104 70.8748 5.95289 -2.62414 17.5288 -8.84736 7.32051 171.093 -3.63292 86.3752 -11.6271 -9.03629 -0.365433 66.6087 -3.65437 2.03243 27.6553 -0.0107434 2.02384 0.302899 7.43438 -90.055 12.0056 0.576266 -0.172504 0.334811 0.568116 -0.197715 -22.2014 0.601462 0.00866804 -2.18872 0.601468 0.0086648 93.2691 -25.2591 -101.691 46.3395 -22.7727 -6.71318 -11.6729 -14.2668 -22.5253 -10.4995 0.0939203 -6.49295 -86.6521 -48.3825 83.4893 -25.7779 28.9398 -14.1275 4.62968 -11.9752 -7.60222 -1.26411 -0.104104 -6.21696 3.78598 -1.78204 -1.07457 -8.38512 -1.64904 1.72909 
35.4804 101.126 20.8067 -147.561 -83.189 -148.312 -172.907 -4.67222 90.1494 -11.5998 0.834002 -0.305271 71.0574 5.95609 -2.67241 17.5505 -8.7419 7.15624 171.276 -4.06922 86.7703 -11.2993 -9.13368 -0.384964 66.5889 -3.7906 1.60177 27.2111 0.0676576 2.44663 0.343879 7.47502 -90.0623 11.9246 0.654435 -0.194862 0.253754 0.645222 -0.223485 -22.2827 0.682743 0.0108366 -2.27008 0.682743 0.0108363 93.3153 -25.557 -101.492 46.3238 -22.8103 -6.7731 -10.9346 -12.5734 -22.1851 -11.3426 0.0733984 -6.20422 -86.5307 -47.7212 83.5678 -26.6472 28.0373 -14.2688 5.1163 -10.8771 -7.13699 -1.71653 -0.103944 -6.41182 3.90717 -1.87665 -1.54542 -8.87642 -1.68662 2.13745 
35.5044 101.124 20.8557 -146.972 -83.279 -147.871 -173.052 -4.72321 89.9181 -11.373 0.688794 -0.243177 71.0531 5.98944 -2.59202 17.4322 -8.81692 7.17643 171.18 -3.94852 86.5876 -11.3009 -9.3578 -0.378503 66.5267 -3.70829 1.74503 27.2965 0.146658 2.00723 0.322346 7.48281 -90.085 11.909 0.600968 -0.234221 0.238175 0.590081 -0.260448 -22.2981 0.64358 -0.0427619 -2.28542 0.643574 -0.0427765 93.4692 -24.9044 -101.374 46.5238 -23.2034 -6.94848 -10.9801 -13.1351 -22.0328 -10.9299 0.0804999 -6.30507 -86.5816 -48.646 83.6399 -25.9352 28.1199 -14.0665 4.99477 -11.1525 -7.5336 -1.53786 -0.104784 -6.33842 3.67062 -1.70208 -0.602447 -8.83308 -1.63449 1.21885 
35.4956 101.133 20.9457 -147.37 -83.2386 -148.356 -173.034 -4.97102 89.8696 -11.0753 0.686418 -0.2788 70.9769 5.94341 -2.70347 17.2812 -8.87572 7.13725 171.258 -4.22691 86.5759 -10.9963 -8.8926 -0.532723 66.5124 -3.65323 2.15744 27.547 0.0788145 1.85699 0.330306 7.52145 -90.0493 11.8316 0.633727 -0.165831 0.160797 0.625805 -0.193564 -22.3756 0.654266 0.0323035 -2.36295 0.654258 0.0322936 93.4026 -25.3243 -101.38 46.4416 -22.64 -6.94711 -11.4303 -14.0824 -22.174 -10.8702 0.0984545 -6.49416 -86.6916 -48.173 83.3943 -25.1972 29.9119 -13.8928 4.04971 -13.2824 -8.48853 -1.362 -0.107602 -6.30609 3.17158 -1.87643 -1.67288 -8.75703 -1.67102 2.06987 
35.5097 101.136 20.9724 -145.69 -83.3238 -146.661 -173.087 -4.83762 89.8041 -11.0253 0.640613 -0.254288 70.9821 6.00707 -2.49537 17.1384 -9.08388 7.3652 171.308 -4.06469 86.6264 -10.9766 -9.18127 -0.546959 66.7322 -3.87929 1.34727 26.8943 0.122938 2.76101 0.296555 7.56456 -90.0057 11.7451 0.587149 -0.0732904 0.0742557 0.583363 -0.0990706 -22.4619 0.582032 0.106568 -2.4493 0.582043 0.106573 92.9717 -25.9681 -102.095 45.4215 -22.7832 -7.08898 -10.455 -11.5341 -21.9192 -11.785 0.0605452 -5.99661 -86.2862 -47.8181 83.9609 -26.0106 27.2157 -14.1245 5.27401 -11.1626 -7.40035 -2.13667 -0.095715 -6.85558 2.4072 -1.63323 -1.91438 -9.07621 -1.39485 1.77432 
